<?xml version="1.0" encoding="utf-8"?>
<!-- Generator: Adobe Illustrator 17.0.0, SVG Export Plug-In . SVG Version: 6.00 Build 0)  -->
<!DOCTYPE svg PUBLIC "-//W3C//DTD SVG 1.1//EN" "http://www.w3.org/Graphics/SVG/1.1/DTD/svg11.dtd">
<svg version="1.1" id="图层_1" xmlns="http://www.w3.org/2000/svg" xmlns:xlink="http://www.w3.org/1999/xlink" x="0px" y="0px"
	 width="32px" height="32px" viewBox="0 0 32 32" enable-background="new 0 0 32 32" xml:space="preserve">
<g>
	<circle fill="#B8BFD7" cx="16" cy="16" r="16"/>
</g>
<g>
	<g>
		<g>
			<g>
				<path fill="#28C8C4" d="M16,17.062c-5.149,0-9.5-2.061-9.5-4.5s4.351-4.5,9.5-4.5s9.5,2.061,9.5,4.5S21.149,17.062,16,17.062z"
					/>
			</g>
			<g>
				<path fill="#2D325F" d="M16,8.563c5.304,0,9,2.108,9,4s-3.696,4-9,4s-9-2.108-9-4S10.696,8.563,16,8.563 M16,7.563
					c-5.523,0-10,2.239-10,5s4.477,5,10,5c5.523,0,10-2.239,10-5S21.523,7.563,16,7.563L16,7.563z"/>
			</g>
		</g>
		<g>
			<path fill="#B8BFD7" d="M16,23.938c-5.149,0-9.5-2.061-9.5-4.5V15.57c1.666,1.859,5.251,3.118,9.5,3.118s7.834-1.258,9.5-3.118
				v3.868C25.5,21.877,21.149,23.938,16,23.938z"/>
			<path fill="#2D325F" d="M7,16.68c1.975,1.527,5.239,2.507,9,2.507s7.025-0.98,9-2.507v2.757c0,1.892-3.696,4-9,4s-9-2.108-9-4
				V16.68 M26,13.187c0,2.761-4.477,5-10,5c-5.523,0-10-2.239-10-5v6.25c0,2.761,4.477,5,10,5c5.523,0,10-2.239,10-5V13.187
				L26,13.187z"/>
		</g>
	</g>
	<g>
		<g>
			<ellipse fill="#2D325F" cx="16" cy="10.1" rx="1.518" ry="0.758"/>
			<ellipse fill="#2D325F" cx="16" cy="15.025" rx="1.518" ry="0.758"/>
		</g>
		<g>
			<ellipse fill="#2D325F" cx="11.068" cy="12.563" rx="1.518" ry="0.758"/>
			<ellipse fill="#2D325F" cx="20.932" cy="12.563" rx="1.518" ry="0.758"/>
		</g>
	</g>
</g>
</svg>
